<svg data-noselect="" viewBox="0 0 400 300" width="400" height="300" preserveAspectRatio="none" version="1.1" xmlns="http://www.w3.org/2000/svg" style="background: rgba(255, 255, 255, 0);"><defs></defs> <g id="shape_5rPBG2QRBg" transform="translate(67.13483146067415,16.853932584269664) rotate(0,0,0) scale(0.5617977528089888,0.5617977528089888)" filter="" style="cursor: move; opacity: 1;"><g><rect fill="rgba(0,0,0,0)" width="493" height="494" x="-10" y="-10"></rect><svg xmlns="http://www.w3.org/2000/svg" viewBox="0 0 473.17 474.04" width="473" height="474" preserveAspectRatio="none" data-parent="shape_5rPBG2QRBg"><defs><radialGradient id="adbd6354a-137e-4c69-b60b-3b4d8f7c5692" cx="232.58" cy="251.19" r="588.54" gradientUnits="userSpaceOnUse"><stop offset="0" stop-color="#cce70b"></stop><stop offset="1" stop-color="#30621a"></stop></radialGradient><radialGradient id="b6fad649c-4634-40c7-9224-c769c027632b" cx="232.58" cy="251.19" r="588.54" gradientUnits="userSpaceOnUse"><stop offset="0" stop-color="#cce70b"></stop><stop offset="1" stop-color="#30621a"></stop></radialGradient><radialGradient id="ccd105cd9-d136-48c6-b96c-47a4587dcb7b" cx="232.58" cy="251.19" r="588.54" gradientUnits="userSpaceOnUse"><stop offset="0" stop-color="#cce70b"></stop><stop offset="1" stop-color="#30621a"></stop></radialGradient></defs><g><g><path d="M165.52 192.07c-25.37-53.23-76.35-39.13-76.35-39.13 27.65 48.5 76.35 39.13 76.35 39.13zM79.62 108c36.55 1.32 33.17 43 103.11 56.65 3.1-25.49-45.88-91.35-103.11-56.65zM102.86 135.76c-7-15.7-57.88-36.65-78.82 3 21.47-11.84 33.96 13.29 78.82-3z" fill="url(#adbd6354a-137e-4c69-b60b-3b4d8f7c5692)"></path><path d="M83.34 162.37c-5.62-12.59-54.61-34.14-68.8-3.05 15.39-8.32 32.78 16.12 68.8 3.05z" fill="url(#adbd6354a-137e-4c69-b60b-3b4d8f7c5692)"></path><path d="M76.88 221.08c-9-12.34-67.06-24.31-75.21 12.66 14.74-12.55 39.23 9.85 75.21-12.66z" fill="url(#b6fad649c-4634-40c7-9224-c769c027632b)"></path><path d="M87.55 177.3c-24.67-9.35-54.74 8.52-76.09-8.17 15.92 46.95 63.16 24.41 76.09 8.17z" fill="url(#adbd6354a-137e-4c69-b60b-3b4d8f7c5692)"></path><path d="M33.37 203.64c-22.3-26.79-30.7-.1-30.24 4.25 7.66-12.3 17.16 3.4 30.24-4.25zM48.71 286c33 14.32 50.41-9.31 50.41-9.31C65.5 259 48.71 286 48.71 286zM99.12 342.33c-13-2.64-57.32 23.74-40.86 52.26 2.11-16.7 30.97-16.7 40.86-52.26zM93.65 299.67c-48.75 11.6-44.3 39.05-69.95 41 41.21 22.74 72.86-23.21 69.95-41z" fill="url(#adbd6354a-137e-4c69-b60b-3b4d8f7c5692)"></path><path d="M64.19 351.59c-34.55-4.73-22.74 20.64-19.47 23.54-2.64-14.25 14.97-9.07 19.47-23.54zM61.2 261.12c-32-21.51-46.68-4.23-61.2-17.71 8.7 35.18 52.66 28.65 61.2 17.71z" fill="url(#adbd6354a-137e-4c69-b60b-3b4d8f7c5692)"></path><path d="M62 298.19c-22.91-6.92-33.27 28-49.57 11.93 4.02 11.25 26.11 30.56 49.57-11.93z" fill="url(#ccd105cd9-d136-48c6-b96c-47a4587dcb7b)"></path><path d="M45.38 295.83c-4.21-5.78-31.42-11.39-35.24 5.93 6.91-5.88 18.39 4.61 35.24-5.93z" fill="url(#adbd6354a-137e-4c69-b60b-3b4d8f7c5692)"></path><path d="M40.62 276.43c-21-9.28-27.81 2.38-37.73-4 8.77 19.71 33.86 11.31 37.73 4z" fill="url(#b6fad649c-4634-40c7-9224-c769c027632b)"></path><path d="M196.56 404c-11.45 6.36-27.77 54.55 2.85 65.39-9.13-13.84 12.53-32.33-2.85-65.39zM168.92 368.85c-31.69 43.45-8.42 64.78-28 84.27 49.49-10.21 42.77-71.78 28-84.27zM207.26 406.65c10.72 16.28-8.43 27.69 7.25 62.27 12.01-6.51 25.49-48.12-7.25-62.27z" fill="url(#adbd6354a-137e-4c69-b60b-3b4d8f7c5692)"></path><path d="M176.3 437.21c-27 17.31-3.56 28 .45 28.06-10.35-8.38 5.04-15.27-.45-28.06zM143.44 349.88C92 359.1 88.16 399.8 64.33 400.54c38.02 26.99 81.1-31.96 79.11-50.66zM92.26 424.39c2.43 3.32 25.18 16.64 23.8-16.18-13.97 2.94-10.67 19.92-23.8 16.18z" fill="url(#adbd6354a-137e-4c69-b60b-3b4d8f7c5692)"></path><path d="M141.63 385.44c-12.58 3.95-38.43 48.16-10.43 65.05-6.2-15.49 18.9-29.39 10.43-65.05zM176.12 108.76c-13-55.12-46-51.17-48.13-80.16-25.77 46.51 28.01 83.4 48.13 80.16z" fill="url(#adbd6354a-137e-4c69-b60b-3b4d8f7c5692)"></path><path d="M170.54 67.79c7.11-23.32-28.44-34-12-50.55-11.54 4.02-31.24 26.49 12 50.55z" fill="url(#adbd6354a-137e-4c69-b60b-3b4d8f7c5692)"></path><path d="M174.05 50.82c5.9-4.28 11.69-32-6-35.93 6.01 7.05-4.71 18.73 6 35.93z" fill="url(#ccd105cd9-d136-48c6-b96c-47a4587dcb7b)"></path><path d="M266.77 42.84c10.7-17.21 0-28.89 6-35.94-17.7 3.94-11.91 31.65-6 35.94z" fill="url(#adbd6354a-137e-4c69-b60b-3b4d8f7c5692)"></path><path d="M123.28 91.62c-2.13-13.12-36-38.86-59.53-13.35 18.4-4.61 22.72 16.64 59.53 13.35z" fill="url(#ccd105cd9-d136-48c6-b96c-47a4587dcb7b)"></path><path d="M87.88 96.11c-5.85-8.28-37.7-14.6-45.29 10.76 11.08-9.32 21.15 3.81 45.29-10.76z" fill="url(#adbd6354a-137e-4c69-b60b-3b4d8f7c5692)"></path><path d="M117.07 71.75c2.54-6.7-6.38-27.84-24.22-22.24 9.83 2.79 6.15 13.89 24.22 22.24z" fill="url(#b6fad649c-4634-40c7-9224-c769c027632b)"></path><path d="M370.31 340.35c7 15.69 57.88 36.65 78.82-3-21.47 11.83-33.91-13.3-78.82 3z" fill="url(#adbd6354a-137e-4c69-b60b-3b4d8f7c5692)"></path><path d="M389.83 313.74c5.61 12.59 54.61 34.14 68.79 3-15.38 8.33-32.77-16.07-68.79-3zM407.93 253c7.73 10.59 57.57 20.87 64.57-10.86-12.65 10.75-33.68-8.47-64.57 10.86zM397.76 290.94c34.53 19.17 48 .28 63.95 12.77-11.91-35.12-56.18-24.71-63.95-12.77z" fill="url(#adbd6354a-137e-4c69-b60b-3b4d8f7c5692)"></path><path d="M439.79 272.46c22.31 26.79 30.71.1 30.25-4.24-7.66 12.3-17.17-3.41-30.25 4.24zM433.15 189.29c-26.89-11.68-44.41 7.59-44.41 7.59 27.42 14.39 44.41-7.59 44.41-7.59zM376.91 104.92c-52.15-3.72-62.76 59.54-51.54 76.14 43.79-34.41 26.63-62.2 51.54-76.14zM368.77 137.63c14 2.83 61.54-25.49 43.87-56.11-2.26 17.93-33.25 17.93-43.87 56.11zM368 185.56c56.11-13.35 52-46.95 81.51-49.23-47.51-26.13-84.9 28.76-81.51 49.23z" fill="url(#adbd6354a-137e-4c69-b60b-3b4d8f7c5692)"></path><path d="M409 124.52c34.54 4.72 22.74-20.65 19.46-23.54 2.63 14.25-14.98 9.07-19.46 23.54zM473.17 232.69C464.47 197.52 420.51 204 412 215c32 21.5 46.64 4.22 61.17 17.69zM411.13 177.92c22.9 6.91 33.26-28 49.56-11.93-3.97-11.25-26.06-30.56-49.56 11.93z" fill="url(#adbd6354a-137e-4c69-b60b-3b4d8f7c5692)"></path><path d="M427.78 180.28c4.22 5.78 31.43 11.39 35.25-5.93-6.91 5.87-18.39-4.62-35.25 5.93zM432.55 199.68c21 9.27 27.8-2.38 37.72 4-8.76-19.68-33.85-11.31-37.72-4zM289.86 144.05C328.72 135.2 327 99.49 327 99.49c-36.11 11.06-37.14 44.56-37.14 44.56zM304.25 107.25c31.69-43.45 8.42-64.77 28-84.27-49.49 10.21-42.77 71.78-28 84.27z" fill="url(#adbd6354a-137e-4c69-b60b-3b4d8f7c5692)"></path><path d="M296.87 38.9c27-17.32 3.56-28-.45-28.07 10.35 8.38-5.05 15.28.45 28.07z" fill="url(#adbd6354a-137e-4c69-b60b-3b4d8f7c5692)"></path><path d="M341.25 104.45c36.75-6.58 39.49-35.65 56.51-36.19C370.6 49 339.83 91.1 341.25 104.45z" fill="url(#ccd105cd9-d136-48c6-b96c-47a4587dcb7b)"></path><path d="M380.91 51.72c-2.43-3.33-25.19-16.65-23.81 16.17C371.07 65 367.77 48 380.91 51.72z" fill="url(#adbd6354a-137e-4c69-b60b-3b4d8f7c5692)"></path><path d="M330.14 94.63c13.35-4.2 40.77-51.1 11.06-69 6.57 16.46-20.05 31.16-11.06 69zM304.05 378.94c11.11 47.21 39.37 43.82 41.23 68.65 22.07-39.83-24-71.42-41.23-68.65zM269.28 418.54c1.39-18.64 22.61-16.09 30.94-51.54-12.93-2.07-47.51 21.64-30.94 51.54z" fill="url(#adbd6354a-137e-4c69-b60b-3b4d8f7c5692)"></path><path d="M302.62 408.32c-7.1 23.32 28.45 34 12 50.55 11.51-4.03 31.25-26.49-12-50.55z" fill="url(#adbd6354a-137e-4c69-b60b-3b4d8f7c5692)"></path><path d="M300.17 425.28c-5.9 4.28-11.69 32 6 35.94-6.01-7.06 4.71-18.73-6-35.94zM349.89 384.48c2.13 13.12 36 38.87 59.53 13.35-18.42 4.62-22.73-16.64-59.53-13.35zM385.29 380c5.84 8.29 37.69 14.6 45.29-10.75-11.08 9.3-21.15-3.82-45.29 10.75zM356.1 404.35c-2.54 6.71 6.38 27.84 24.22 22.24-9.84-2.79-6.14-13.88-24.22-22.24z" fill="url(#adbd6354a-137e-4c69-b60b-3b4d8f7c5692)"></path><path d="M280.88 413.17C256.33 444 272.72 460.36 257.8 474c36.54-5.92 33.51-51.23 23.08-60.83zM257.62 440.24c-25.45 12.13-20 27.77-33.91 31.88 25.35 7.63 37.61-22.44 33.91-31.88zM209.8 11.4C173.23 21.5 181.31 67.33 193 76c21.61-34.18 3.11-49 16.8-64.6zM280.32 95.8c17.13-34.76-2-47 9.43-63.29-33.84 13.37-21.46 56.25-9.43 63.29z" fill="url(#adbd6354a-137e-4c69-b60b-3b4d8f7c5692)"></path><path d="M37.37 245c13.1-5.3 24.93 15.85 55 8.52-3.37-10.59-40.85-32.25-55-8.52z" fill="url(#ccd105cd9-d136-48c6-b96c-47a4587dcb7b)"></path><path d="M314.75 149.8c-39.75 12.2-40.88 49.09-40.88 49.09 42.82-9.75 40.88-49.09 40.88-49.09z" fill="url(#b6fad649c-4634-40c7-9224-c769c027632b)"></path><path d="M294 104.5c-56.59 3.82-58.5 73.33-44 89.5 41.9-43.53 19.26-70.79 44-89.5zM199 81.91c-24.45 18.06-16.26 43.8-16.26 43.8 27.14-17.14 16.26-43.8 16.26-43.8zM168.09 176.53c8.28 29.26 35.25 30.67 35.25 30.67-6.45-31.46-35.25-30.67-35.25-30.67zM253.66 436.66c15.65-37.89-28.8-61.4-43.92-57.16 14.78 41.08 39.71 35.15 43.92 57.16zM377.06 360.31c-35.51-21.61-63.84 2.07-63.84 2.07 35.78 25.51 63.84-2.07 63.84-2.07zM87.4 337.5c25.24-4.77 26.07-25.74 26.07-25.74C86.5 314.83 87.4 337.5 87.4 337.5z" fill="url(#adbd6354a-137e-4c69-b60b-3b4d8f7c5692)"></path><path d="M324.42 200.69c-141.73 60.44-232.16-12.41-232.16-12.41 6.49 146.9 63.63 181.17 126.65 184.44 71 3.69 95.5-33.58 116.56-73.58 55.14-104.72 39.11 16.56-5.09 47.13 87.39-15.97 101.43-191.37-5.96-145.58z" fill="#333"></path><path d="M238.12 206.28c-4.66-10.38-36.23-36.51 4.67-102.14C289.86 28.6 224.12 0 224.12 0c6 7.33 24.79 41.52-14.32 103-44.99 70.67 28.32 103.28 28.32 103.28z" fill="#333"></path></g></g></svg></g> <!----></g>  <!----></svg>